<svg xmlns="http://www.w3.org/2000/svg" width="24" height="24" viewBox="0 0 24 24">
  <path d="M14.7439414,11 L15.5,11 C17.9852814,11 20,13.0147186 20,15.5 C20,17.9852814 17.9852814,20 15.5,20 L5.5,20 C3.56700338,20 2,18.4329966 2,16.5 C2,14.736764 3.30385293,13.2780593 5,13.0354444 C5,10.2385763 7.23857625,8 10,8 L10.5,8 C12.4593282,8 14.1261868,9.25221144 14.7439414,11 Z M14.9725356,12 C14.9906833,12.1641669 15,12.3309955 15,12.5 C15,12.7761424 14.7761424,13 14.5,13 C14.2238576,13 14,12.7761424 14,12.5 C14,10.5670034 12.4329966,9 10.5,9 L10,9 C7.790861,9 6,10.790861 6,13 L6,13.5 C6,13.7761424 5.77614237,14 5.5,14 C4.11928813,14 3,15.1192881 3,16.5 C3,17.8807119 4.11928813,19 5.5,19 L15.5,19 C17.4329966,19 19,17.4329966 19,15.5 C19,13.5670034 17.4329966,12 15.5,12 L14.9725356,12 L14.9725356,12 Z M14.1096548,7.62689038 C14.0410039,7.89436312 13.7685219,8.05554005 13.5010491,7.98688914 C13.2335764,7.91823823 13.0723994,7.64575618 13.1410504,7.37828345 C13.6476997,5.40431271 15.4336437,4 17.5,4 C17.6807736,4 17.8603436,4.01068471 18.0380487,4.03188349 C18.4175582,4.0771559 18.60801,4.51420726 18.3827897,4.82299985 C18.1352439,5.16240235 18,5.57034112 18,6 C18,7.1045695 18.8954305,8 20,8 C20.4296589,8 20.8375976,7.86475615 21.1770002,7.6172103 C21.4857927,7.39199003 21.9228441,7.5824418 21.9681165,7.96195127 C21.9893153,8.13965636 22,8.31922636 22,8.5 C22,9.62000205 21.5886376,10.6773495 20.8577341,11.4959942 C20.673823,11.7019829 20.3577469,11.7198803 20.1517582,11.5359692 C19.9457695,11.3520581 19.9278721,11.0359819 20.1117832,10.8299933 C20.6072082,10.2750951 20.9134172,9.58074856 20.9841951,8.83471677 C20.6717556,8.94314818 20.3399804,9 20,9 C18.3431458,9 17,7.65685425 17,6 C17,5.66005642 17.0568395,5.32831625 17.165248,5.01590637 C15.7028531,5.15546559 14.475844,6.20017024 14.1096548,7.62689038 Z"/>
</svg>
