<svg xmlns="http://www.w3.org/2000/svg" width="24" height="24" viewBox="0 0 24 24">
  <path d="M15.7439414,7 L16.5,7 C18.9852814,7 21,9.01471863 21,11.5 C21,13.9852814 18.9852814,16 16.5,16 C16.2238576,16 16,15.7761424 16,15.5 C16,15.2238576 16.2238576,15 16.5,15 C18.4329966,15 20,13.4329966 20,11.5 C20,9.56700338 18.4329966,8 16.5,8 L15.9725356,8 C15.9906833,8.16416693 16,8.33099545 16,8.5 C16,8.77614237 15.7761424,9 15.5,9 C15.2238576,9 15,8.77614237 15,8.5 C15,6.56700338 13.4329966,5 11.5,5 L11,5 C8.790861,5 7,6.790861 7,9 L7,9.5 C7,9.77614237 6.77614237,10 6.5,10 C5.11928813,10 4,11.1192881 4,12.5 C4,13.8807119 5.11928813,15 6.5,15 C6.77614237,15 7,15.2238576 7,15.5 C7,15.7761424 6.77614237,16 6.5,16 C4.56700338,16 3,14.4329966 3,12.5 C3,10.736764 4.30385293,9.27805926 6,9.03544443 C6,6.23857625 8.23857625,4 11,4 L11.5,4 C13.4593282,4 15.1261868,5.25221144 15.7439414,7 L15.7439414,7 Z M9,15.5 C9,15.2238576 9.22385763,15 9.5,15 C9.77614237,15 10,15.2238576 10,15.5 L10,19.5 C10,19.7761424 9.77614237,20 9.5,20 C9.22385763,20 9,19.7761424 9,19.5 L9,15.5 Z M11,14.5 C11,14.2238576 11.2238576,14 11.5,14 C11.7761424,14 12,14.2238576 12,14.5 L12,18.5 C12,18.7761424 11.7761424,19 11.5,19 C11.2238576,19 11,18.7761424 11,18.5 L11,14.5 Z M13,15.5 C13,15.2238576 13.2238576,15 13.5,15 C13.7761424,15 14,15.2238576 14,15.5 L14,19.5 C14,19.7761424 13.7761424,20 13.5,20 C13.2238576,20 13,19.7761424 13,19.5 L13,15.5 Z"/>
</svg>
