<svg xmlns="http://www.w3.org/2000/svg" width="24" height="24" viewBox="0 0 24 24">
  <path d="M12,4 C7.581722,4 4,7.581722 4,12 C4,16.418278 7.581722,20 12,20 C16.418278,20 20,16.418278 20,12 C20,11.6778801 19.9809872,11.3583398 19.9433432,11.0425086 C19.1009521,11.6569885 18.0775585,12 17,12 C14.2385763,12 12,9.76142375 12,7 C12,5.9224415 12.3430115,4.89904787 12.9574914,4.05665678 C12.6416602,4.01901279 12.3221199,4 12,4 Z M14.2633878,4.08262654 C13.4623038,4.83441054 13,5.8796173 13,7 C13,9.209139 14.790861,11 17,11 C18.1203827,11 19.1655895,10.5376962 19.9173735,9.7366122 C20.1909732,9.44507057 20.6791282,9.57665637 20.7691336,9.96621043 C20.9220747,10.628158 21,11.3091874 21,12 C21,16.9705627 16.9705627,21 12,21 C7.02943725,21 3,16.9705627 3,12 C3,7.02943725 7.02943725,3 12,3 C12.6908126,3 13.371842,3.07792534 14.0337896,3.23086642 C14.4233436,3.32087176 14.5549294,3.80902683 14.2633878,4.08262654 Z"/>
</svg>
