<svg xmlns="http://www.w3.org/2000/svg" width="24" height="24" viewBox="0 0 24 24">
  <path d="M11,17 L11.5,17 C11.7761424,17 12,17.2238576 12,17.5 C12,17.7761424 11.7761424,18 11.5,18 L11,18 L11,18.5 C11,18.7761424 10.7761424,19 10.5,19 C10.2238576,19 10,18.7761424 10,18.5 L10,18 L9.5,18 C9.22385763,18 9,17.7761424 9,17.5 C9,17.2238576 9.22385763,17 9.5,17 L10,17 L10,16.5 C10,16.2238576 10.2238576,16 10.5,16 C10.7761424,16 11,16.2238576 11,16.5 L11,17 Z M14,15 L14.5,15 C14.7761424,15 15,15.2238576 15,15.5 C15,15.7761424 14.7761424,16 14.5,16 L14,16 L14,16.5 C14,16.7761424 13.7761424,17 13.5,17 C13.2238576,17 13,16.7761424 13,16.5 L13,16 L12.5,16 C12.2238576,16 12,15.7761424 12,15.5 C12,15.2238576 12.2238576,15 12.5,15 L13,15 L13,14.5 C13,14.2238576 13.2238576,14 13.5,14 C13.7761424,14 14,14.2238576 14,14.5 L14,15 Z M10,13 L10.5,13 C10.7761424,13 11,13.2238576 11,13.5 C11,13.7761424 10.7761424,14 10.5,14 L10,14 L10,14.5 C10,14.7761424 9.77614237,15 9.5,15 C9.22385763,15 9,14.7761424 9,14.5 L9,14 L8.5,14 C8.22385763,14 8,13.7761424 8,13.5 C8,13.2238576 8.22385763,13 8.5,13 L9,13 L9,12.5 C9,12.2238576 9.22385763,12 9.5,12 C9.77614237,12 10,12.2238576 10,12.5 L10,13 Z M15.7439414,7 L16.5,7 C18.9852814,7 21,9.01471863 21,11.5 C21,13.9852814 18.9852814,16 16.5,16 C16.2238576,16 16,15.7761424 16,15.5 C16,15.2238576 16.2238576,15 16.5,15 C18.4329966,15 20,13.4329966 20,11.5 C20,9.56700338 18.4329966,8 16.5,8 L15.9725356,8 C15.9906833,8.16416693 16,8.33099545 16,8.5 C16,8.77614237 15.7761424,9 15.5,9 C15.2238576,9 15,8.77614237 15,8.5 C15,6.56700338 13.4329966,5 11.5,5 L11,5 C8.790861,5 7,6.790861 7,9 L7,9.5 C7,9.77614237 6.77614237,10 6.5,10 C5.11928813,10 4,11.1192881 4,12.5 C4,13.8807119 5.11928813,15 6.5,15 C6.77614237,15 7,15.2238576 7,15.5 C7,15.7761424 6.77614237,16 6.5,16 C4.56700338,16 3,14.4329966 3,12.5 C3,10.736764 4.30385293,9.27805926 6,9.03544443 C6,6.23857625 8.23857625,4 11,4 L11.5,4 C13.4593282,4 15.1261868,5.25221144 15.7439414,7 L15.7439414,7 Z"/>
</svg>
