<svg xmlns="http://www.w3.org/2000/svg" width="24" height="24" viewBox="0 0 24 24">
  <path d="M15.7439414,7 L16.5,7 C18.9852814,7 21,9.01471863 21,11.5 C21,13.9852814 18.9852814,16 16.5,16 C16.2238576,16 16,15.7761424 16,15.5 C16,15.2238576 16.2238576,15 16.5,15 C18.4329966,15 20,13.4329966 20,11.5 C20,9.56700338 18.4329966,8 16.5,8 L15.9725356,8 C15.9906833,8.16416693 16,8.33099545 16,8.5 C16,8.77614237 15.7761424,9 15.5,9 C15.2238576,9 15,8.77614237 15,8.5 C15,6.56700338 13.4329966,5 11.5,5 L11,5 C8.790861,5 7,6.790861 7,9 L7,9.5 C7,9.77614237 6.77614237,10 6.5,10 C5.11928813,10 4,11.1192881 4,12.5 C4,13.8807119 5.11928813,15 6.5,15 C6.77614237,15 7,15.2238576 7,15.5 C7,15.7761424 6.77614237,16 6.5,16 C4.56700338,16 3,14.4329966 3,12.5 C3,10.736764 4.30385293,9.27805926 6,9.03544443 C6,6.23857625 8.23857625,4 11,4 L11.5,4 C13.4593282,4 15.1261868,5.25221144 15.7439414,7 L15.7439414,7 Z M12.8596118,16 L10.5,16 C10.1747144,16 9.93603541,15.6943056 10.0149287,15.3787322 L11.0149287,11.3787322 C11.0819031,11.1108347 11.3533704,10.9479544 11.6212678,11.0149287 C11.8891653,11.0819031 12.0520456,11.3533704 11.9850713,11.6212678 L11.1403882,15 L13.5,15 C13.8252856,15 14.0639646,15.3056944 13.9850713,15.6212678 L12.9850713,19.6212678 C12.9180969,19.8891653 12.6466296,20.0520456 12.3787322,19.9850713 C12.1108347,19.9180969 11.9479544,19.6466296 12.0149287,19.3787322 L12.8596118,16 Z"/>
</svg>
