<svg xmlns="http://www.w3.org/2000/svg" width="24" height="24" viewBox="0 0 24 24">
  <path d="M13,4 C13,3.44771525 12.5522847,3 12,3 C11.4477153,3 11,3.44771525 11,4 L11,16.1707057 C11.3127789,16.0601542 11.6493646,16 12,16 C12.3506354,16 12.6872211,16.0601542 13,16.1707057 L13,15 L12.5,15 C12.2238576,15 12,14.7761424 12,14.5 C12,14.2238576 12.2238576,14 12.5,14 L13,14 L13,13 L12.5,13 C12.2238576,13 12,12.7761424 12,12.5 C12,12.2238576 12.2238576,12 12.5,12 L13,12 L13,11 L12.5,11 C12.2238576,11 12,10.7761424 12,10.5 C12,10.2238576 12.2238576,10 12.5,10 L13,10 L13,9 L12.5,9 C12.2238576,9 12,8.77614237 12,8.5 C12,8.22385763 12.2238576,8 12.5,8 L13,8 L13,7 L12.5,7 C12.2238576,7 12,6.77614237 12,6.5 C12,6.22385763 12.2238576,6 12.5,6 L13,6 L13,5 L12.5,5 C12.2238576,5 12,4.77614237 12,4.5 C12,4.22385763 12.2238576,4 12.5,4 L13,4 Z M10,16.7638935 L10,4 C10,2.8954305 10.8954305,2 12,2 C13.1045695,2 14,2.8954305 14,4 L14,16.7638935 C14.6137494,17.313214 15,18.1115002 15,19 C15,20.6568542 13.6568542,22 12,22 C10.3431458,22 9,20.6568542 9,19 C9,18.1115002 9.38625064,17.313214 10,16.7638935 L10,16.7638935 Z M10.7912793,17.4064411 C10.310464,17.7717061 10,18.3495967 10,19 C10,20.1045695 10.8954305,21 12,21 C13.1045695,21 14,20.1045695 14,19 C14,18.3495967 13.689536,17.7717061 13.2087207,17.4064411 C13.2028451,17.4022228 13.1970646,17.3978802 13.1913833,17.3934173 C12.8586076,17.1462374 12.4463816,17 12,17 C11.5536184,17 11.1413924,17.1462374 10.8086167,17.3934173 C10.8029354,17.3978802 10.7971549,17.4022228 10.7912793,17.4064411 L10.7912793,17.4064411 Z M12,20 C11.4477153,20 11,19.5522847 11,19 C11,18.4477153 11.4477153,18 12,18 C12.5522847,18 13,18.4477153 13,19 C13,19.5522847 12.5522847,20 12,20 Z"/>
</svg>
