<svg width="138" height="93" viewBox="0 0 138 93" fill="none" xmlns="http://www.w3.org/2000/svg">
<path d="M96.9336 23.5833L95.9907 23.9166L96.2264 24.5833H96.9336V23.5833ZM23.5833 38.9057L23.7249 39.8956L24.5833 39.7728V38.9057H23.5833ZM96.9336 24.5833H102.625V22.5833H96.9336V24.5833ZM102.625 24.5833C120.781 24.5833 135.5 39.302 135.5 57.4583H137.5C137.5 38.1974 121.886 22.5833 102.625 22.5833V24.5833ZM135.5 57.4583C135.5 75.6147 120.781 90.3333 102.625 90.3333V92.3333C121.886 92.3333 137.5 76.7193 137.5 57.4583H135.5ZM102.625 90.3333H27.3472V92.3333H102.625V90.3333ZM27.3472 90.3333C13.3483 90.3333 2 78.985 2 64.9861H0C0 80.0896 12.2438 92.3333 27.3472 92.3333V90.3333ZM2 64.9861C2 52.2175 11.4423 41.6525 23.7249 39.8956L23.4417 37.9158C10.188 39.8116 0 51.2082 0 64.9861H2ZM24.5833 38.9057C24.5833 18.3992 40.9917 2 61.2222 2V0C39.878 0 22.5833 17.3038 22.5833 38.9057H24.5833ZM61.2222 2H64.9861V0H61.2222V2ZM64.9861 2C79.2985 2 91.4772 11.1467 95.9907 23.9166L97.8764 23.2501C93.0893 9.70607 80.1725 0 64.9861 0V2Z" fill="white"/>
</svg>
